PathFileType	4	(X/Y/Z)	\\147.46.242.158\로컬 디스크 (e)\MOCAP Data\Iguana Capture\iguana\Project 2\Capture day 7\Session 2\Take05.trc
DataRate	CameraRate	NumFrames	NumMarkers	Units	OrigDataRate	OrigDataStartFrame	OrigNumFrames
120.0	120.0	18	23	mm	120.0	1	17359
Frame#	Time	ana:head1			ana:head2			ana:bone1			ana:bone2			ana:bone3			ana:tail1			ana:tail2			ana:tail3			ana:tail4			ana:Rforefoot1			ana:Rforefoot2			ana:Rforefoot3			ana:Lforefoot1			ana:Lforefoot2			ana:Lforefoot3			ana:RhindLeg1			ana:RhindLeg2			ana:RhindLeg3			ana:RhindLeg4			ana:LhindLeg1			ana:LhindLeg2			ana:LhindLeg3			ana:LhindLeg4			
		X1	Y1	Z1	X2	Y2	Z2	X3	Y3	Z3	X4	Y4	Z4	X5	Y5	Z5	X6	Y6	Z6	X7	Y7	Z7	X8	Y8	Z8	X9	Y9	Z9	X10	Y10	Z10	X11	Y11	Z11	X12	Y12	Z12	X13	Y13	Z13	X14	Y14	Z14	X15	Y15	Z15	X16	Y16	Z16	X17	Y17	Z17	X18	Y18	Z18	X19	Y19	Z19	X20	Y20	Z20	X21	Y21	Z21	X22	Y22	Z22	X23	Y23	Z23	

7300	60.825	727.73230	-36.42719	51.20012	732.77380	-27.26834	49.87780	746.61414	-14.46798	41.68921	763.84741	10.55779	35.45975	780.64124	38.33230	30.90010	792.69263	69.00277	27.67323	809.75079	101.38250	23.93355	828.86084	140.92708	14.39573	836.35675	179.12517	3.98657	733.40070	-12.25561	23.89058	734.81323	7.52610	17.60739	732.70953	-2.85097	3.74091	752.89618	-22.17325	28.35754	763.60059	-29.02994	30.14512	757.49231	-42.86298	20.54576	775.01361	43.81572	26.63820	754.78131	46.07868	25.94317	762.14270	63.64471	14.12109	750.24738	63.23593	13.93623	790.48206	35.32062	24.08861	803.35168	23.40627	17.54416	815.03674	36.87540	4.27215	812.55865	24.79309	0.84555	
7301	60.833	724.17285	-39.52431	51.60051	729.70825	-30.63226	51.17140	743.18927	-18.19270	43.84077	760.37689	4.70793	38.27024	776.44360	32.07098	33.60564	787.01917	66.59271	26.31067	805.30237	98.46751	23.57391	826.39069	137.13727	13.37021	838.73273	173.92404	4.18064	730.03412	-15.13062	25.30511	734.51624	5.84275	18.74662	735.42932	0.62732	0.88944	749.05219	-25.46967	30.03469	759.26013	-32.60101	32.60119	751.62109	-46.79663	23.92525	769.67133	38.93982	25.07963	751.08209	38.23284	26.49393	746.58691	56.47023	9.62405	739.01123	51.07579	13.32496	787.04871	32.74950	23.99146	800.96051	22.33434	17.99377	813.30249	36.70934	5.67467	812.27655	24.59587	1.62375	
7302	60.842	720.44983	-42.44310	52.70691	726.24689	-33.70610	52.35786	739.28656	-20.21775	44.23592	757.50513	1.44024	39.31166	773.05048	26.98636	34.75625	783.00153	63.56752	27.09105	800.70483	95.64465	23.02318	824.16925	132.97943	13.45755	838.36499	169.22900	2.94078	726.40723	-18.19971	26.28359	732.22900	3.08460	21.08157	734.90479	0.20365	1.26272	745.02319	-28.49254	31.17405	754.60333	-35.68842	33.68231	746.79041	-49.86846	26.52279	767.41382	33.19906	24.96347	746.93317	30.98276	25.99529	737.00543	46.87275	12.48424	729.83630	37.88242	14.50985	783.07513	30.34025	23.76943	798.55444	21.32355	18.74287	811.14880	36.47583	7.30797	811.68365	24.86217	1.76639	
7303	60.850	717.14752	-45.55311	53.67476	722.07489	-36.35844	52.49836	736.00128	-23.43114	45.45610	754.58301	0.98766	38.33928	769.63300	25.01123	34.56590	778.38013	60.66299	27.10905	795.30695	93.00838	21.04292	820.41229	129.28201	11.67868	838.24658	164.26532	3.18899	723.27362	-20.98125	27.87675	729.75812	0.66183	21.02719	733.90387	-0.57430	2.02097	741.36517	-31.73034	31.98315	750.82953	-39.71383	34.64080	741.95557	-53.00315	27.92173	761.83545	29.59994	27.15602	743.16455	25.54521	25.74428	728.11798	35.86737	13.38514	721.77032	25.43344	13.24058	779.74408	27.66021	24.32935	795.51782	20.16412	19.30808	809.00671	35.49556	8.46677	811.11261	24.52227	2.36864	
7304	60.858	713.67792	-48.76825	54.75047	719.76978	-39.62668	55.31388	730.73260	-22.47402	42.10650	751.19934	-2.24985	39.95451	765.92657	24.23668	33.19161	773.61401	57.97667	26.68708	789.89203	90.34840	20.02788	815.66602	125.98230	11.00231	835.48279	159.97954	2.16012	719.03180	-24.05206	28.82372	727.81885	-1.61813	22.45292	733.11316	0.10835	0.81760	737.63184	-35.62595	32.53862	746.16132	-44.83057	34.37097	736.00342	-56.72419	27.01420	758.02057	28.55335	26.51763	738.87524	20.22667	26.06936	720.62006	25.94921	12.17719	715.71143	15.28015	11.24623	775.17731	25.20281	24.44211	793.22803	18.67771	21.28720	807.60461	33.62302	10.65702	810.30286	23.90415	2.59884	
7305	60.867	710.36505	-52.19324	55.80131	715.80597	-43.26472	55.72283	726.57813	-26.99509	48.17887	747.18011	-4.89084	40.63104	761.93152	21.09360	34.44188	768.20593	55.09501	26.74315	783.72992	87.78255	18.55882	809.38153	123.32198	8.96703	833.11993	155.17883	2.67926	715.16528	-27.18979	29.57844	724.53955	-4.98137	22.77197	731.13684	-4.30821	2.65128	731.24066	-39.87387	29.67277	741.30988	-50.36647	33.46180	729.98059	-60.56915	25.80365	753.80811	25.14253	26.66479	734.51929	16.38545	24.84751	717.90631	18.86388	9.91762	712.56592	8.92049	8.35342	771.79523	22.60494	25.99116	788.75342	17.45705	21.01528	804.95673	31.73555	11.19183	809.77820	23.03347	3.25572	
7306	60.875	706.73126	-55.62928	56.83285	711.71161	-46.51923	56.20627	722.97595	-30.67788	48.78786	742.47272	-7.62668	41.25932	757.45496	18.35514	34.41491	762.68542	52.16836	25.92802	777.15796	85.19090	17.64647	803.98108	119.81431	8.47795	829.46600	150.53896	2.71705	711.27673	-30.77988	30.30621	721.18060	-8.50664	23.02529	726.93304	-8.76995	3.64233	726.97125	-44.12364	30.27606	735.94745	-55.50248	32.52906	724.81720	-65.18655	24.10205	748.27429	17.33946	29.65953	730.00952	12.02088	23.93147	717.12311	17.63778	5.45326	710.90948	6.93923	2.45448	767.36322	19.79256	25.78754	785.80267	15.64355	22.72648	803.06030	29.13959	13.55069	808.82477	20.41941	6.16905	
7307	60.883	703.39569	-59.33148	57.90112	708.24774	-50.14262	56.77280	719.76080	-33.97800	48.11001	738.29968	-10.83930	42.13471	753.14734	15.34493	34.83054	757.42365	48.81323	25.23744	770.28241	82.33309	16.61627	797.73523	116.89352	7.34168	824.02625	146.51158	1.68336	706.89459	-34.40623	30.95197	716.82166	-13.02145	22.06531	723.95795	-11.34467	3.82711	726.30078	-48.25209	34.00985	731.18207	-60.11782	31.55845	720.07581	-69.70567	21.75759	744.23914	18.16472	26.52904	725.70703	12.37173	20.37615	716.52362	18.33296	1.82024	710.77563	6.88662	0.87436	763.52966	16.49418	26.94506	781.54077	13.49424	24.10698	799.52435	26.53892	14.84024	807.52423	20.20332	6.87500	
7308	60.892	699.95026	-63.29840	58.22635	704.74927	-54.10688	57.77764	716.33917	-38.63692	48.84480	733.07770	-15.89110	43.94736	748.73682	12.40091	34.83521	752.36444	45.66743	24.16837	763.77155	79.32202	14.61698	790.18408	114.35665	5.24638	819.58008	141.91008	2.18462	702.06519	-38.35124	30.83269	716.95502	-14.78791	18.95701	721.71100	-12.57437	3.33313	721.75397	-51.98314	33.48372	727.05499	-64.28472	30.67052	718.34552	-75.14320	20.30405	740.21783	13.64704	27.47135	721.97003	9.75207	21.46513	716.88287	18.27818	1.98815	711.16339	7.60110	-0.27334	759.29938	13.14027	27.51329	777.78778	9.77165	24.49430	796.03436	22.55747	15.57107	804.87646	18.46031	7.02430	
7309	60.900	696.74573	-67.89557	58.44400	702.11121	-58.69896	58.35761	712.65338	-42.90168	49.70757	728.42474	-19.56079	44.56382	744.42072	8.83179	35.45285	748.54211	41.85693	24.82943	757.82507	75.88438	13.67919	783.83606	111.41840	4.21306	813.75366	137.85970	2.59188	698.65228	-42.70414	31.35501	711.41235	-20.41362	21.14919	719.88019	-13.03547	2.45128	719.58673	-56.28092	33.97297	724.11676	-68.06049	29.36569	717.00098	-79.17152	17.42400	735.97760	10.38219	27.67236	717.71204	8.09209	20.33120	716.89496	18.38070	1.96404	711.81818	8.71515	-1.03885	755.30505	9.36852	28.56299	773.54865	6.19056	24.83455	793.31854	17.98624	17.07513	801.07605	16.07558	6.65639	
7310	60.908	693.98047	-72.88828	59.09246	698.73431	-63.51947	58.19747	709.19855	-47.40298	49.44494	724.02515	-23.45708	44.82203	738.51959	8.29959	33.50508	744.53076	38.07111	24.90412	752.30334	72.00314	13.18098	777.02765	108.09013	4.27062	807.79956	134.00459	2.84688	695.74139	-47.35242	32.14484	707.72064	-24.19876	22.45373	718.15338	-13.30443	1.47248	716.42181	-60.41488	32.54584	722.14380	-71.42393	27.14990	716.50580	-81.54484	13.45609	731.56458	6.93415	27.75250	714.36536	6.56286	19.52496	716.94501	18.47627	2.02288	712.48541	9.86125	-1.47237	751.17169	5.43955	29.00325	769.30981	1.98508	25.79954	787.55957	15.04286	15.97986	796.01788	13.69711	6.28231	
7311	60.917	691.49414	-78.37444	59.27902	696.78119	-69.28663	59.31084	706.91766	-53.96533	51.25323	719.42480	-27.92948	44.56416	735.14386	3.64182	35.67677	741.74829	33.52003	26.24234	747.29315	68.14850	14.73996	770.89996	104.91274	4.97836	802.37732	130.21346	2.78892	689.76813	-54.48083	35.23061	699.74548	-31.51851	26.10244	716.21857	-13.95768	0.68760	715.29321	-64.99818	32.13686	721.32837	-73.91972	24.18516	716.24182	-82.35263	9.85053	727.48871	3.71408	27.73513	710.30005	6.02685	17.76969	717.68555	18.50843	2.93256	712.91064	10.67191	-1.62412	746.59589	1.13369	29.34368	764.97955	-2.84519	26.85010	781.20282	11.78378	15.42888	790.04871	10.50271	5.89321	
7312	60.925	689.91699	-84.38961	59.61737	692.23834	-75.17555	56.42240	704.52368	-58.54581	49.81341	716.50195	-30.74818	43.62561	731.13647	-0.56319	34.45743	738.73999	28.89308	27.36305	743.40814	63.78634	16.25183	765.22723	101.65218	5.82464	797.05951	126.29616	3.01447	696.00647	-53.44214	29.06131	691.87927	-39.33694	30.59249	700.53046	-25.00402	7.00639	714.67712	-68.73335	31.44647	721.98212	-74.64610	22.06097	716.39673	-80.74150	5.73075	723.41284	0.49401	27.71776	707.23682	5.47810	15.92014	716.43146	18.01676	4.31063	712.83923	10.77960	-1.54431	742.42499	-4.15063	30.16736	759.31702	-9.18248	27.69818	772.84912	7.04918	15.10769	782.03137	5.02322	5.80785	
7313	60.933	688.84833	-90.56214	59.48569	693.17749	-83.59153	61.08114	703.28497	-63.86882	49.42015	712.50885	-36.01227	43.24335	727.16949	-6.97633	35.23556	735.70160	22.68848	30.42922	741.69781	58.38455	18.70032	759.62421	97.86578	6.57145	791.36749	123.18199	2.94078	693.44977	-60.50998	29.91961	686.92334	-46.77665	33.51863	682.71344	-39.74900	15.57787	713.94702	-72.85279	30.93189	722.36768	-76.37689	21.95586	717.08160	-81.27110	5.57552	720.17999	-2.84142	27.55033	704.73370	5.41546	16.57817	716.87823	18.39137	6.71057	712.28943	10.21203	-1.19639	737.68335	-9.75363	30.46226	753.89368	-17.85020	29.55498	764.73602	-0.86727	16.24140	775.46460	-4.44674	9.85615	
7314	60.942	687.97638	-97.36185	59.09539	691.34192	-90.05145	59.00863	701.80634	-71.86671	51.45694	708.89191	-41.52601	43.48293	723.50208	-12.07448	36.24375	735.22522	15.25307	32.10640	739.99548	52.53093	21.03381	755.90552	93.07465	8.84910	785.22174	120.21941	3.01812	691.03638	-68.85093	31.32075	682.01404	-56.33923	35.39449	671.29572	-55.52344	23.41129	713.60632	-76.74363	30.98977	722.40729	-77.76395	21.86438	717.16327	-81.90408	5.51394	717.55719	-6.18597	27.58891	702.87415	4.14947	16.90446	714.78949	15.54510	6.87573	712.32086	10.35476	-1.16070	732.94629	-15.89860	31.07063	747.33441	-27.67339	31.95274	757.19305	-11.30145	17.04634	768.45447	-17.49863	13.88271	
7315	60.950	687.21503	-104.10086	59.35378	689.68433	-94.91932	56.08364	699.87347	-76.88705	50.89147	705.71777	-47.44312	43.87149	719.36322	-17.44173	36.37919	733.05994	9.13905	33.21618	739.32214	46.13124	23.11792	751.91339	87.37920	10.99498	779.06470	117.01197	4.03915	689.14966	-77.06446	32.41495	678.77179	-65.72344	37.34813	666.01410	-69.23554	27.12067	712.71289	-81.30393	31.18884	721.46484	-80.12901	22.38467	716.42938	-82.44968	5.25792	713.88367	-11.05255	28.38690	701.91022	1.24150	18.48248	717.30414	15.14967	12.96858	710.19604	8.35754	2.11955	729.01532	-22.50134	32.75137	739.75848	-37.21197	33.82061	751.40332	-23.59342	18.41742	760.29773	-33.04412	17.05988	
7316	60.958	686.46460	-111.12374	60.28495	691.80499	-101.17509	59.66189	698.80432	-84.83920	52.75792	702.92871	-53.94090	44.88095	715.80341	-23.91350	37.75974	732.01068	4.05881	33.60818	737.99316	38.97002	25.09027	747.97144	81.12023	12.53549	772.56470	112.80013	5.06743	683.99860	-88.68104	38.02156	675.91241	-75.05903	37.48207	663.50964	-82.71236	28.70464	711.66571	-86.90407	32.37934	720.10596	-83.51620	23.13721	716.03571	-85.08742	7.25875	710.99701	-16.81237	30.17172	699.81073	-2.33809	20.34852	718.65857	12.78357	18.77906	707.45062	5.72850	6.32172	724.11029	-29.07547	33.30029	732.10132	-46.35593	35.63262	746.64453	-37.05598	19.95647	751.07532	-49.41223	19.14219	
7317	60.967	685.37366	-118.40720	60.95791	690.74347	-108.46736	60.88956	697.43323	-91.91170	53.72277	700.93445	-61.00358	46.16093	713.08789	-30.81140	39.80307	729.57196	-3.15364	35.27285	737.63763	31.26736	27.81417	744.48517	74.10637	14.80241	765.73663	107.34474	5.30635	682.68750	-95.71676	38.65447	672.32629	-85.00681	37.35728	662.78088	-95.33457	29.65594	709.43530	-92.95885	32.25369	717.66107	-88.30586	23.45535	715.09949	-86.94460	6.78994	708.37250	-22.56577	31.84534	697.56000	-7.34509	21.92615	712.39258	8.07028	16.41326	704.74530	2.43570	10.20445	720.24127	-36.10855	34.28361	725.67950	-54.85837	35.93697	741.97089	-51.70843	19.79392	741.36145	-65.04910	19.62089	
